<svg xmlns="http://www.w3.org/2000/svg" width="130" height="69"><path fill="#FFF" fill-rule="evenodd" d="M56.267 25.49c.103-.102.386-.766.85-1.993 2.418 0 5.66.716 9.727 2.146a105.772 105.772 0 0 0-3.088 13.3c-.772 4.626-1.158 7.922-1.158 9.89 0 1.967.206 2.951.617 2.951.31 0 1.441-.486 3.397-1.457l.927-.46 1.39 2.684c-.464.408-1.069.92-1.815 1.533-.746.613-2.149 1.443-4.207 2.491-2.06 1.048-3.912 1.572-5.559 1.572-3.19 0-5.044-1.431-5.558-4.293-3.294 2.862-6.266 4.293-8.917 4.293-2.65 0-4.89-1.023-6.717-3.067-1.827-2.044-2.74-5.264-2.74-9.659 0-6.848 1.415-12.252 4.246-16.213 2.83-3.96 6.253-5.94 10.268-5.94 2.882 0 5.661.74 8.337 2.222zm-8.8 26.14c1.235 0 2.624-.485 4.168-1.456.36-7.206 1.57-14.335 3.629-21.388-1.544-.664-2.857-.996-3.938-.996-1.852 0-3.435 1.801-4.747 5.404-1.313 3.603-1.969 7.577-1.969 11.92 0 4.345.952 6.517 2.856 6.517zm35.396-26.983c1.106.92 1.66 2.81 1.66 5.673 0 1.533-.463 4.663-1.39 9.39-.926 4.728-1.39 7.602-1.39 8.624 0 2.045.412 3.067 1.236 3.067 1.955 0 4.104-1.444 6.446-4.332 2.342-2.887 3.564-5.302 3.667-7.244L87.842 34c.206-2.197.747-4.19 1.622-5.98.874-1.788 1.698-3.04 2.47-3.755l1.08-.997c2.214 0 3.887.588 5.019 1.763 1.132 1.176 1.698 2.555 1.698 4.14 0 4.037-1.003 8.304-3.01 12.802-2.008 4.497-4.684 8.317-8.03 11.46-3.345 3.143-6.742 4.715-10.19 4.715-2.162 0-3.821-.665-4.98-1.994-1.157-1.328-1.736-3.079-1.736-5.25 0-2.173.167-5.098.501-8.778.335-3.68.502-7.334.502-10.962 0-.818-.296-1.789-.888-2.913-.591-1.124-1.196-2.019-1.814-2.683l.232-.92c2.779-.92 5.288-1.38 7.527-1.38s3.911.46 5.018 1.38zm17.563 19.318c0-6.388 1.943-11.435 5.829-15.14 3.885-3.705 8.299-5.558 13.24-5.558 3.036 0 5.532.741 7.488 2.223 1.956 1.482 2.934 3.463 2.934 5.941 0 2.479-.63 4.561-1.892 6.248-1.26 1.686-2.792 2.99-4.593 3.91-3.654 1.788-7 2.912-10.036 3.372l-1.853.23c.36 4.804 2.342 7.206 5.944 7.206 1.236 0 2.548-.306 3.938-.92 1.39-.613 2.47-1.226 3.242-1.84l1.158-.92 1.853 2.454c-.412.562-1.235 1.303-2.47 2.223-1.236.92-2.394 1.686-3.475 2.3-2.985 1.635-6.253 2.453-9.804 2.453s-6.356-1.252-8.415-3.757c-2.059-2.504-3.088-5.979-3.088-10.425zM32.051 3.567c-1.841-.684-3.757-.283-4.225 3.881a568.222 568.222 0 0 1-.782 12.35c6.082-.273 9.923 1.556 9.923 1.556l-.22 2.663c-2.96-.832-6.496-.71-10.028-.116-2.068 24.748-4.81 32.54-4.81 32.54S18.373 68.563 7.162 68.196C.5 68.196 0 63.428 0 63.428l2.316-1.431s3.746 8.259 7.876-1.06c2.448-5.523 4.822-21.864 6.349-34.257-4.178 1.51-7.124 2.977-7.124 2.977L8.13 27.11c3.133-2.336 6.147-3.977 8.97-5.105.715-6.151 1.138-10.486 1.138-10.486S19.79-.358 31 .009c.381 0 .741.015 1.083.044v-.01s7.117.292 8.774 5.952c-.22 1.948-2.642 4.027-3.408 4.148-3.737-1.244-5.431-2.588-5.431-2.588l.034-3.988zM117.72 38.14c-1.544 1.737-3.628 2.836-6.253 3.296 0-2.862.527-5.94 1.582-9.237 1.055-3.297 2.56-4.945 4.517-4.945 1.647 0 2.47 1.38 2.47 4.14s-.772 5.008-2.316 6.746z"/></svg>