<svg id="regular" enable-background="new 0 0 24 24" height="512" viewBox="0 0 24 24" width="512" xmlns="http://www.w3.org/2000/svg"><path d="m16.363 4.255-2.541-.389-1.144-2.436c-.247-.526-1.11-.526-1.357 0l-1.144 2.436-2.54.389c-.278.043-.509.237-.598.503-.089.267-.022.561.174.763l1.86 1.907-.44 2.702c-.046.283.074.568.308.734.236.165.544.183.795.043l2.264-1.252 2.264 1.251c.113.063.238.094.362.094.152 0 .303-.046.432-.137.234-.166.354-.451.308-.734l-.44-2.702 1.86-1.907c.196-.201.264-.496.175-.762s-.32-.46-.598-.503zm-2.775 2.396c-.167.17-.242.41-.204.645l.253 1.551-1.275-.705c-.112-.063-.237-.094-.362-.094s-.25.031-.363.094l-1.275.705.253-1.551c.038-.235-.037-.474-.204-.645l-1.105-1.133 1.494-.229c.247-.038.459-.196.565-.422l.635-1.352.635 1.352c.106.226.318.385.565.422l1.494.229z"/><path d="m10.961 14.758c-.089-.267-.32-.46-.598-.503l-2.541-.389-1.144-2.436c-.247-.526-1.11-.526-1.357 0l-1.144 2.436-2.541.389c-.278.042-.509.236-.598.503s-.021.561.175.762l1.86 1.907-.44 2.702c-.046.283.074.568.308.734.235.166.544.183.795.043l2.264-1.251 2.264 1.251c.113.063.238.094.362.094.152 0 .303-.046.432-.137.234-.166.354-.451.308-.734l-.44-2.702 1.86-1.907c.197-.201.264-.495.175-.762zm-3.373 1.893c-.167.17-.242.41-.204.645l.253 1.551-1.275-.705c-.112-.063-.237-.094-.362-.094s-.25.031-.363.094l-1.275.705.253-1.551c.038-.235-.037-.474-.204-.645l-1.105-1.133 1.494-.229c.247-.038.459-.196.565-.422l.635-1.352.635 1.352c.106.226.318.385.565.422l1.494.229z"/><path d="m22.961 14.758c-.089-.267-.32-.46-.598-.503l-2.541-.389-1.144-2.436c-.247-.526-1.11-.526-1.357 0l-1.144 2.436-2.541.389c-.278.042-.509.236-.598.503s-.021.561.175.762l1.86 1.907-.44 2.702c-.046.283.074.568.308.734.236.166.544.183.795.043l2.264-1.251 2.264 1.251c.113.063.238.094.362.094.152 0 .303-.046.432-.137.234-.166.354-.451.308-.734l-.44-2.702 1.86-1.907c.197-.201.264-.495.175-.762zm-3.373 1.893c-.167.17-.242.41-.204.645l.253 1.551-1.275-.705c-.113-.062-.238-.094-.363-.094s-.25.031-.363.094l-1.275.705.253-1.551c.038-.235-.037-.474-.204-.645l-1.105-1.133 1.494-.229c.247-.038.459-.196.565-.422l.636-1.352.635 1.352c.106.226.318.385.565.422l1.494.229z"/></svg>