<svg id="Bold" enable-background="new 0 0 24 24" height="512" viewBox="0 0 24 24" width="512" xmlns="http://www.w3.org/2000/svg"><path d="m15.367 10.129-.44-2.702 1.86-1.907c.425-.435.181-1.173-.423-1.265l-2.541-.389-1.144-2.436c-.247-.526-1.11-.526-1.357 0l-1.144 2.436-2.541.389c-.606.093-.848.83-.423 1.265l1.86 1.907-.44 2.702c-.101.619.559 1.079 1.103.777l2.263-1.251 2.264 1.251c.54.301 1.205-.154 1.103-.777z"/><path d="m10.363 14.255-2.541-.389-1.144-2.436c-.247-.526-1.11-.526-1.357 0l-1.144 2.436-2.541.389c-.606.093-.848.83-.423 1.265l1.86 1.907-.44 2.702c-.101.616.556 1.081 1.103.777l2.264-1.251 2.264 1.251c.54.3 1.205-.154 1.103-.777l-.44-2.702 1.86-1.907c.424-.435.181-1.172-.424-1.265z"/><path d="m22.363 14.255-2.541-.389-1.144-2.436c-.247-.526-1.11-.526-1.357 0l-1.144 2.436-2.541.389c-.606.093-.848.83-.423 1.265l1.86 1.907-.44 2.702c-.101.617.557 1.081 1.103.777l2.264-1.251 2.264 1.251c.54.3 1.205-.154 1.103-.777l-.44-2.702 1.86-1.907c.424-.435.181-1.172-.424-1.265z"/></svg>